<?xml version="1.0" encoding="UTF-8" standalone="no"?>
<!-- Created with Inkscape (http://www.inkscape.org/) -->

<svg
   width="55.584953mm"
   height="78.430695mm"
   viewBox="0 0 55.584953 78.430695"
   version="1.1"
   id="svg1"
   xml:space="preserve"
   inkscape:version="1.4 (e7c3feb100, 2024-10-09)"
   sodipodi:docname="icon-2.svg"
   xmlns:inkscape="http://www.inkscape.org/namespaces/inkscape"
   xmlns:sodipodi="http://sodipodi.sourceforge.net/DTD/sodipodi-0.dtd"
   xmlns="http://www.w3.org/2000/svg"
   xmlns:svg="http://www.w3.org/2000/svg"><sodipodi:namedview
     id="namedview1"
     pagecolor="#ffffff"
     bordercolor="#000000"
     borderopacity="0.25"
     inkscape:showpageshadow="2"
     inkscape:pageopacity="0.0"
     inkscape:pagecheckerboard="0"
     inkscape:deskcolor="#d1d1d1"
     inkscape:document-units="mm"
     inkscape:zoom="0.71446409"
     inkscape:cx="187.55316"
     inkscape:cy="191.75212"
     inkscape:window-width="1241"
     inkscape:window-height="758"
     inkscape:window-x="312"
     inkscape:window-y="143"
     inkscape:window-maximized="0"
     inkscape:current-layer="layer1" /><defs
     id="defs1" /><g
     inkscape:label="Layer 1"
     inkscape:groupmode="layer"
     id="layer1"
     transform="translate(-83.436878,-106.43847)"><g
       style="fill:#e8eaed"
       id="g1"
       transform="matrix(-3.4740596,0,0,3.9215347,152.91807,98.595397)"><path
         id="path2"
         style="fill:#000000;fill-opacity:1"
         d="M 18.000064 2.0000009 C 19.100064 2.0000009 20 2.8999659 20 3.9999659 L 20 19.999949 C 20 21.099949 19.100064 22.000046 18.000064 22.000046 L 6.0000028 22.000046 C 4.9000028 22.000046 4.000067 21.099949 4.000067 19.999949 L 4.000067 3.9999659 C 4.000067 2.8999659 4.9000028 2.0000009 6.0000028 2.0000009 L 18.000064 2.0000009 z M 9.6941945 3.976378 L 6.0000028 3.9999659 L 5.9623692 8.2439451 L 7.7460234 6.8400032 L 9.7208206 8.2565956 L 9.6941945 3.976378 z M 15.376571 9.1373867 C 14.920911 9.1373867 14.534645 9.2807011 14.217664 9.5671084 C 13.900683 9.8535156 13.742112 10.211472 13.742112 10.641083 C 13.742112 10.90064 13.816503 11.187005 13.965088 11.500263 C 14.113672 11.813521 14.361244 12.189441 14.707942 12.628002 C 15.084357 13.111315 15.364229 13.536503 15.547484 13.903463 C 15.730738 14.270422 15.822373 14.592583 15.822373 14.87004 C 15.822373 15.022194 15.795042 15.140808 15.740561 15.225835 C 15.686079 15.310862 15.609353 15.353394 15.510296 15.353394 C 15.41124 15.353394 15.324575 15.328694 15.250283 15.279468 C 15.17599 15.230242 15.039781 15.111759 14.841668 14.923805 C 14.712894 14.798501 14.559293 14.644091 14.380991 14.460612 C 14.202689 14.277132 13.984784 14.051131 13.727237 13.782624 C 13.103181 13.111357 12.538616 12.632541 12.033428 12.346133 C 11.528239 12.059726 10.998311 11.916543 10.443594 11.916543 C 9.7799151 11.916543 9.2350787 12.117845 8.8091355 12.520605 C 8.3831923 12.923365 8.140441 13.473773 8.0810071 14.17189 L 7.3530275 14.17189 C 7.1450087 14.17189 6.9691941 14.236877 6.8255621 14.366655 C 6.6819301 14.496434 6.6100242 14.655203 6.6100242 14.843158 C 6.6100242 15.031112 6.6819301 15.190013 6.8255621 15.319792 C 6.9691941 15.44957 7.1450087 15.514425 7.3530275 15.514425 L 8.0810071 15.514425 C 8.1602524 16.51685 8.450063 17.315714 8.9502987 17.910904 C 9.4505343 18.506094 10.087005 18.803687 10.859646 18.803687 C 11.394552 18.803687 11.845269 18.638049 12.211778 18.306891 C 12.578288 17.975732 12.761556 17.577489 12.761556 17.112077 C 12.761556 16.43186 12.456838 15.816598 11.84764 15.266159 C 11.238442 14.71572 10.478185 14.37335 9.566865 14.239096 C 9.596582 13.916888 9.6857316 13.672923 9.8343164 13.507344 C 9.9829013 13.341765 10.186047 13.259078 10.443594 13.259078 C 10.740764 13.259078 11.062726 13.370956 11.409424 13.594711 C 11.756122 13.818467 12.167085 14.185405 12.642557 14.695568 C 13.415198 15.52794 13.982396 16.069365 14.343952 16.319972 C 14.705509 16.570578 15.094259 16.695929 15.510296 16.695929 C 16.015485 16.695929 16.441505 16.525801 16.788203 16.185692 C 17.134901 15.845583 17.308231 15.433867 17.308231 14.950555 C 17.308231 14.467243 17.19175 13.97284 16.958967 13.467152 C 16.726184 12.961464 16.332465 12.355052 15.777748 11.647984 C 15.58954 11.415278 15.450847 11.218336 15.361696 11.057232 C 15.272545 10.896128 15.22797 10.766418 15.22797 10.667965 C 15.22797 10.605314 15.240393 10.558291 15.265157 10.526965 C 15.289922 10.495639 15.327042 10.479921 15.376571 10.479921 C 15.426099 10.479921 15.485582 10.493394 15.554921 10.520244 C 15.624261 10.547095 15.698503 10.596364 15.777748 10.667965 C 15.926333 10.793269 16.097178 10.860369 16.290338 10.869319 C 16.483499 10.878269 16.649524 10.820019 16.788203 10.694716 C 16.936788 10.551512 17.013514 10.383761 17.018467 10.191331 C 17.02342 9.9989016 16.946693 9.8400007 16.788203 9.7146975 C 16.550467 9.5267428 16.312685 9.3835601 16.074949 9.2851076 C 15.837214 9.1866551 15.604401 9.1373867 15.376571 9.1373867 z M 9.5817399 15.608513 C 10.0374 15.706965 10.433604 15.90153 10.770396 16.192412 C 11.107189 16.483295 11.275698 16.772037 11.275698 17.058445 C 11.275698 17.183748 11.236093 17.282153 11.156847 17.353755 C 11.077602 17.425357 10.968575 17.461152 10.829896 17.461152 C 10.512915 17.461152 10.245466 17.29776 10.027542 16.971077 C 9.8096175 16.644394 9.6609852 16.190278 9.5817399 15.608513 z " /></g><g
       style="display:inline;fill:#e8eaed"
       id="g2"
       transform="matrix(0.05161926,0,0,0.05264794,86.59409,178.65245)"
       inkscape:label="g2" /></g></svg>
