<?xml version="1.0" encoding="UTF-8" standalone="no"?>
<!-- Created with Inkscape (http://www.inkscape.org/) -->

<svg
   width="94.962753mm"
   height="117.87022mm"
   viewBox="0 0 94.962753 117.87022"
   version="1.1"
   id="svg1"
   xml:space="preserve"
   inkscape:version="1.4 (e7c3feb100, 2024-10-09)"
   sodipodi:docname="drawing.svg"
   xmlns:inkscape="http://www.inkscape.org/namespaces/inkscape"
   xmlns:sodipodi="http://sodipodi.sourceforge.net/DTD/sodipodi-0.dtd"
   xmlns="http://www.w3.org/2000/svg"
   xmlns:svg="http://www.w3.org/2000/svg"><sodipodi:namedview
     id="namedview1"
     pagecolor="#ffffff"
     bordercolor="#000000"
     borderopacity="0.25"
     inkscape:showpageshadow="2"
     inkscape:pageopacity="0.0"
     inkscape:pagecheckerboard="0"
     inkscape:deskcolor="#d1d1d1"
     inkscape:document-units="mm"
     inkscape:clip-to-page="false"
     inkscape:zoom="0.71446409"
     inkscape:cx="161.65963"
     inkscape:cy="215.54617"
     inkscape:window-width="1241"
     inkscape:window-height="758"
     inkscape:window-x="355"
     inkscape:window-y="104"
     inkscape:window-maximized="0"
     inkscape:current-layer="layer1" /><defs
     id="defs1" /><g
     inkscape:label="Layer 1"
     inkscape:groupmode="layer"
     id="layer1"
     transform="translate(-62.081517,-99.494902)"><path
       d="m 82.85462,217.36512 c -5.737333,0 -10.63385,-2.01362 -14.689551,-6.04085 -4.055702,-4.02723 -6.083552,-8.88938 -6.083552,-14.58644 v -76.61564 c 0,-5.69706 2.02785,-10.55921 6.083552,-14.58644 4.055701,-4.02723 8.952218,-6.040848 14.689551,-6.040848 h 62.31931 c 3.26434,0 6.05882,1.154148 8.38343,3.462438 2.32461,2.30829 3.48691,5.08315 3.48691,8.32458 v 70.86947 c 0,1.57161 -0.39568,2.99587 -1.18703,4.2728 -0.79135,1.27693 -1.87947,2.25918 -3.26435,2.94675 -1.38487,0.68758 -2.47299,1.69439 -3.26434,3.02043 -0.79135,1.32604 -1.18703,2.77486 -1.18703,4.34646 0,1.5716 0.39568,3.04498 1.18703,4.42013 0.79135,1.37515 1.87947,2.35741 3.26434,2.94676 1.28596,0.49113 2.34935,1.22782 3.19016,2.21007 0.84081,0.98225 1.26122,2.16095 1.26122,3.5361 v 1.47338 c 0,1.66983 -0.56879,3.09409 -1.70636,4.2728 -1.13758,1.1787 -2.54717,1.76805 -4.22881,1.76805 z m -8.902758,-39.33919 c 1.384873,-0.68757 2.819207,-1.1787 4.302999,-1.47337 1.483794,-0.29468 3.017047,-0.44202 4.599759,-0.44202 h 62.31931 V 111.28192 H 82.85462 c -2.472988,0 -4.575028,0.85947 -6.30612,2.57841 -1.731092,1.71895 -2.596638,3.80623 -2.596638,6.26186 z m 0,0 v -66.74401 z m 8.902758,27.55217 h 55.34549 c -0.59352,-1.37515 -1.06339,-2.77486 -1.40961,-4.19913 -0.34623,-1.42427 -0.51933,-2.97131 -0.51933,-4.64114 0,-1.5716 0.14837,-3.09409 0.44514,-4.56747 0.29676,-1.47338 0.79136,-2.89765 1.4838,-4.2728 H 82.85462 c -2.571908,0 -4.698679,0.85947 -6.380311,2.57842 -1.681632,1.71894 -2.522447,3.80622 -2.522447,6.26185 0,2.55385 0.840815,4.66569 2.522447,6.33552 1.681632,1.66983 3.808403,2.50475 6.380311,2.50475 z"
       id="path1"
       style="fill:#000000;stroke-width:0.147858"
       sodipodi:nodetypes="ssssssssssssssscsssssscssccsssccccscssscsssss" /><g
       style="fill:#000000"
       id="g1"
       transform="matrix(0.00583115,0,0,0.00529053,105.96975,156.95395)"><path
         d="m 1619.6012,2119.4418 q -709.0368,0 -1194.85829,-474.3132 -485.821491,-474.3132 -485.821491,-1140.91564 0,-974.265 807.514061,-1762.65046 807.51412,-788.3856 2015.50262,-980.6748 -39.3908,-461.4939 -236.3455,-698.6506 -196.9547,-237.1566 -538.3428,-237.1566 -393.9092,0 -853.4702,320.4819 Q 674.21885,-2533.9557 43.963904,-1803.2569 -980.20026,-611.06408 -1459.4566,-252.12433 q -479.2563,358.93974 -1030.7294,358.93974 -669.6458,0 -1129.2066,-487.13251 -459.5609,-487.13252 -459.5609,-1179.3735 0,-692.241 308.5623,-1416.5301 308.5623,-724.2891 1043.8596,-1737.012 249.4759,-333.3012 367.6488,-564.0481 118.1728,-230.747 118.1728,-371.7591 0,-89.7349 -32.8259,-134.6023 -32.8257,-44.8675 -98.4773,-44.8675 -65.6515,0 -157.5637,38.4578 -91.9122,38.4578 -196.9547,141.012 -196.9545,179.4699 -452.9956,192.2892 -256.0411,12.8192 -439.8654,-166.6506 -196.9547,-205.1084 -203.5198,-480.7229 -6.5652,-275.6144 203.5198,-455.0843 315.1274,-269.2048 630.2548,-410.2169 315.1275,-141.012 617.1246,-141.012 603.9943,0 1024.1642,410.2169 420.16994,410.2168 420.16994,1025.5421 0,371.759 -196.95464,820.4336 -196.9546,448.6748 -656.5155,1076.8193 -498.9518,692.241 -741.8626,1217.8313 -242.9106,525.5904 -242.9106,922.988 0,217.9277 72.2166,339.7108 72.2167,121.7832 203.5198,121.7832 131.3032,0 229.7804,-70.506 98.4774,-70.5061 361.0837,-339.7109 170.694,-179.4699 407.0395,-442.2651 236.3456,-262.7952 577.73367,-647.3735 827.209528,-961.4457 1496.8554,-1371.6626 669.64583,-410.2168 1404.94313,-410.2168 879.7308,0 1444.3341,576.8674 564.6034,576.8675 643.3853,1576.7711 h 643.3851 q 275.7366,0 466.1261,185.8795 190.3895,185.8795 190.3895,455.0843 0,269.2048 -190.3895,455.0844 -190.3895,185.8795 -466.1261,185.8795 H 4074.9692 Q 3969.9267,414.47805 3306.846,1266.9599 2643.7654,2119.4418 1619.6012,2119.4418 Z m 26.2606,-1281.92761 q 420.1699,0 709.0367,-467.90361 288.8669,-467.903599 393.9093,-1301.15654 -603.9943,141.012 -1050.4247,557.63849 -446.4306,416.626498 -446.4306,826.8434 0,179.46982 105.0425,282.02399 105.0424,102.55427 288.8668,102.55427 z"
         id="path1-6"
         style="fill:#000000;stroke-width:12.9739" /></g></g></svg>
